<?xml version="1.0" encoding="utf-8"?>
<!-- Generator: Adobe Illustrator 22.1.0, SVG Export Plug-In . SVG Version: 6.00 Build 0)  -->
<svg version="1.1" id="Layer_1" xmlns="http://www.w3.org/2000/svg" xmlns:xlink="http://www.w3.org/1999/xlink" x="0px" y="0px"
	 viewBox="0 0 215.5 186.3" style="enable-background:new 0 0 215.5 186.3;" xml:space="preserve">
<style type="text/css">
	.st0{fill:#B6BFCD;}
	.st1{fill:#96A0AE;}
	.st2{fill:#D0D7E2;}
	.st3{fill:#F05623;}
	.st4{fill:#DB4026;}
	.st5{fill:#F39265;}
</style>
<g>
	<g>
		<g>
			<polygon class="st0" points="173,137.2 107.8,99 107.8,49 173,87.4 			"/>
			<polygon class="st1" points="173,137.2 215.5,111.5 215.5,62.4 173,87.4 			"/>
			<polygon class="st2" points="215.5,62.4 150.3,24.1 107.8,49 173,87.4 			"/>
		</g>
		<g>
			<polygon class="st0" points="65.2,123 0,84.7 0,35.7 65.2,74 			"/>
			<polygon class="st1" points="65.2,123.9 107.8,99 107.8,49.1 65.2,74 			"/>
			<polygon class="st2" points="107.8,49.1 42.6,10.7 0,35.7 65.2,74 			"/>
		</g>
		<g>
			<polygon class="st0" points="87.9,186.3 22.7,147.9 22.7,98.9 87.9,137.2 			"/>
			<polygon class="st1" points="87.9,186.3 130.4,161.3 130.4,112.3 87.9,137.2 			"/>
			<polygon class="st2" points="130.4,112.3 65.2,74 22.7,98.9 87.9,137.2 			"/>
		</g>
	</g>
	<g>
		<polygon class="st3" points="130.4,112.3 65.2,74 65.2,24.9 130.4,63.2 		"/>
		<polygon class="st4" points="130.4,113.2 173,88.2 173,38.3 130.4,63.2 		"/>
		<polygon class="st5" points="173,38.3 107.8,0 65.2,24.9 130.4,63.2 		"/>
	</g>
</g>
</svg>
